<svg width="100" height="100" xmlns="http://www.w3.org/2000/svg"><g fill="none" fill-rule="evenodd"><rect fill="#FF4906" width="100" height="100" rx="22.5"/><g fill="#FFF"><path d="M70 49c7 0 13 6 13 14v10c0 7-6 13-13 13H50c-7 0-13-6-13-13V63c0-8 6-14 13-14h20zm0 7H50a7 7 0 00-6 7v10a7 7 0 006 6h20a7 7 0 006-6V63a7 7 0 00-6-7z"/><path d="M42 10a18 18 0 110 36 18 18 0 010-36zm0 7a11 11 0 100 22 11 11 0 000-22z" fill-rule="nonzero"/><path d="M68 15a15 15 0 110 31 15 15 0 010-31zm0 7a8 8 0 100 17 8 8 0 000-17z" fill-rule="nonzero"/><path d="M23 52l3 1 18 9v12l-18 9a6 6 0 01-9-6V58a6 6 0 016-6zm2 8l-1 2v12a2 2 0 002 1l11-5v-4l-11-6a2 2 0 00-1 0z"/></g></g></svg>
